<?xml version="1.0" standalone="no"?>
<!DOCTYPE svg PUBLIC "-//W3C//DTD SVG 20010904//EN"
 "http://www.w3.org/TR/2001/REC-SVG-20010904/DTD/svg10.dtd">
<svg version="1.0" xmlns="http://www.w3.org/2000/svg"
 width="267.000000pt" height="267.000000pt" viewBox="0 0 267.000000 267.000000"
 preserveAspectRatio="xMidYMid meet">
<metadata>
Created by potrace 1.14, written by Peter Selinger 2001-2017
</metadata>
<g transform="translate(0.000000,267.000000) scale(0.100000,-0.100000)"
fill="#000000" stroke="none">
<path d="M1179 2546 c-2 -2 -31 -6 -64 -10 -108 -11 -262 -59 -378 -117 -345
-175 -589 -504 -661 -893 -21 -116 -15 -355 12 -466 47 -190 113 -335 215
-472 151 -201 349 -347 580 -427 100 -35 127 -42 242 -61 54 -9 308 -6 365 5
405 75 734 322 904 679 55 114 75 171 96 266 23 107 25 127 24 285 0 129 -5
177 -22 250 -79 324 -259 583 -531 765 -98 65 -282 146 -372 164 -13 2 -46 10
-74 16 -47 12 -326 25 -336 16z m301 -110 c292 -54 543 -211 720 -449 52 -70
148 -243 154 -279 1 -7 10 -35 19 -63 32 -96 42 -175 42 -325 0 -114 -3 -148
-21 -249 -17 -99 -84 -251 -172 -391 -45 -71 -220 -245 -297 -295 -142 -93
-296 -155 -447 -180 -76 -13 -296 -14 -368 -2 -387 64 -723 334 -869 698 -60
150 -76 237 -76 419 1 163 9 223 47 339 63 191 158 342 306 482 89 86 146 126
257 183 120 62 228 98 330 111 27 3 51 8 53 10 5 4 291 -3 322 -9z"/>
<path d="M1125 2395 c-250 -45 -422 -132 -594 -298 -215 -208 -329 -482 -329
-787 0 -52 4 -117 9 -145 5 -27 12 -65 15 -84 18 -112 103 -302 185 -412 61
-82 195 -212 274 -264 375 -247 863 -244 1228 8 490 338 621 988 301 1498 -76
121 -226 265 -361 347 -95 57 -254 116 -373 137 -72 13 -286 13 -355 0z m407
-113 c338 -90 599 -332 706 -655 40 -121 47 -167 46 -317 0 -150 -6 -188 -45
-304 -57 -168 -137 -294 -261 -411 -314 -295 -767 -358 -1148 -159 -173 90
-335 255 -424 432 -29 57 -80 205 -91 262 -14 75 -14 275 0 355 74 415 410
747 822 814 89 15 311 5 395 -17z"/>
<path d="M490 1319 l0 -469 54 0 53 0 0 370 c0 204 2 373 5 375 2 2 53 -164
114 -371 l109 -375 50 3 49 3 43 140 c23 77 72 241 109 365 37 124 70 228 73
232 3 4 6 -160 6 -365 l0 -372 53 -3 c31 -2 52 1 53 7 0 6 0 202 0 436 0 234
0 440 0 459 l-1 33 -69 1 c-78 1 -70 10 -108 -118 -11 -36 -60 -199 -109 -362
-49 -164 -91 -294 -95 -290 -3 4 -27 81 -54 172 -58 202 -119 408 -151 517
l-25 81 -79 0 -80 0 0 -469z"/>
<path d="M1326 1783 c-3 -4 -6 -215 -6 -470 l0 -463 55 0 55 0 -1 371 c0 204
1 373 3 375 2 1 53 -166 113 -372 l110 -375 50 3 49 3 111 368 c62 202 114
369 116 371 2 3 4 -163 4 -367 l0 -372 53 -3 52 -3 0 73 c1 62 0 559 0 793 l0
71 -70 1 -69 1 -35 -111 c-19 -62 -72 -235 -117 -384 -45 -150 -86 -273 -90
-273 -3 0 -9 10 -11 23 -3 12 -30 108 -61 212 -31 105 -77 262 -103 350 -25
88 -51 165 -56 172 -10 12 -140 17 -152 6z"/>
</g>
</svg>
